<svg width="44" height="22" viewBox="0 0 44 22" fill="none" xmlns="http://www.w3.org/2000/svg">
<path d="M17.3846 20H11.2308C8.78262 20 6.43474 19.0518 4.70363 17.364C2.97253 15.6761 2 13.3869 2 11C2 8.61305 2.97253 6.32387 4.70363 4.63604C6.43474 2.94821 8.78262 2 11.2308 2H17.3846M26.6154 2H32.7692C35.2174 2 37.5653 2.94821 39.2964 4.63604C41.0275 6.32387 42 8.61305 42 11C42 13.3869 41.0275 15.6761 39.2964 17.364C37.5653 19.0518 35.2174 20 32.7692 20H26.6154M13.0856 11H31.1067" stroke="black" stroke-width="3" stroke-linecap="round" stroke-linejoin="round"/>
</svg>
