<svg width="293" height="105" viewBox="0 0 293 105" fill="none" xmlns="http://www.w3.org/2000/svg">
<path d="M78.604 84.3983C76.9267 84.3983 75.459 84.0283 74.201 83.2883C72.943 82.5483 71.9563 81.426 71.241 79.9213C70.5503 78.392 70.205 76.468 70.205 74.1493C70.205 71.806 70.538 69.882 71.204 68.3773C71.87 66.8726 72.832 65.7503 74.09 65.0103C75.348 64.2703 76.8527 63.9003 78.604 63.9003C80.4787 63.9003 82.156 64.332 83.636 65.1953C85.1407 66.034 86.3247 67.218 87.188 68.7473C88.076 70.2766 88.52 72.0773 88.52 74.1493C88.52 76.246 88.076 78.059 87.188 79.5883C86.3247 81.1176 85.1407 82.3016 83.636 83.1403C82.156 83.979 80.4787 84.3983 78.604 84.3983ZM66.838 91.2803V64.1963H72.351V68.2663L72.24 74.1863L72.61 80.0693V91.2803H66.838ZM77.605 79.6623C78.567 79.6623 79.418 79.4403 80.158 78.9963C80.9227 78.5523 81.527 77.9233 81.971 77.1093C82.4397 76.2706 82.674 75.284 82.674 74.1493C82.674 72.99 82.4397 72.0033 81.971 71.1893C81.527 70.3753 80.9227 69.7463 80.158 69.3023C79.418 68.8583 78.567 68.6363 77.605 68.6363C76.643 68.6363 75.7797 68.8583 75.015 69.3023C74.2503 69.7463 73.646 70.3753 73.202 71.1893C72.758 72.0033 72.536 72.99 72.536 74.1493C72.536 75.284 72.758 76.2706 73.202 77.1093C73.646 77.9233 74.2503 78.5523 75.015 78.9963C75.7797 79.4403 76.643 79.6623 77.605 79.6623ZM92.3839 84.1023V64.1963H97.8969V69.8203L97.1199 68.1923C97.7119 66.7863 98.6616 65.7256 99.9689 65.0103C101.276 64.2703 102.867 63.9003 104.742 63.9003V69.2283C104.495 69.2036 104.273 69.1913 104.076 69.1913C103.879 69.1666 103.669 69.1543 103.447 69.1543C101.868 69.1543 100.586 69.6106 99.5989 70.5233C98.6369 71.4113 98.1559 72.805 98.1559 74.7043V84.1023H92.3839ZM117.908 84.3983C115.639 84.3983 113.641 83.9543 111.914 83.0663C110.212 82.1783 108.893 80.9696 107.955 79.4403C107.018 77.8863 106.549 76.1226 106.549 74.1493C106.549 72.1513 107.006 70.3876 107.918 68.8583C108.856 67.3043 110.126 66.0956 111.729 65.2323C113.333 64.3443 115.146 63.9003 117.168 63.9003C119.117 63.9003 120.868 64.3196 122.422 65.1583C124.001 65.9723 125.247 67.1563 126.159 68.7103C127.072 70.2396 127.528 72.0773 127.528 74.2233C127.528 74.4453 127.516 74.7043 127.491 75.0003C127.467 75.2716 127.442 75.5306 127.417 75.7773H111.248V72.4103H124.383L122.163 73.4093C122.163 72.3733 121.954 71.473 121.534 70.7083C121.115 69.9436 120.535 69.3516 119.795 68.9323C119.055 68.4883 118.192 68.2663 117.205 68.2663C116.219 68.2663 115.343 68.4883 114.578 68.9323C113.838 69.3516 113.259 69.956 112.839 70.7453C112.42 71.51 112.21 72.4226 112.21 73.4833V74.3713C112.21 75.4566 112.445 76.4186 112.913 77.2573C113.407 78.0713 114.085 78.7003 114.948 79.1443C115.836 79.5636 116.872 79.7733 118.056 79.7733C119.117 79.7733 120.042 79.613 120.831 79.2923C121.645 78.9716 122.385 78.4906 123.051 77.8493L126.122 81.1793C125.21 82.2153 124.063 83.017 122.681 83.5843C121.3 84.127 119.709 84.3983 117.908 84.3983ZM136.412 84.1023L128.05 64.1963H134.007L140.963 81.3273H138.003L145.218 64.1963H150.768L142.369 84.1023H136.412ZM153.123 84.1023V64.1963H158.895V84.1023H153.123ZM156.009 61.4213C154.949 61.4213 154.085 61.113 153.419 60.4963C152.753 59.8796 152.42 59.115 152.42 58.2023C152.42 57.2896 152.753 56.525 153.419 55.9083C154.085 55.2916 154.949 54.9833 156.009 54.9833C157.07 54.9833 157.933 55.2793 158.599 55.8713C159.265 56.4386 159.598 57.1786 159.598 58.0913C159.598 59.0533 159.265 59.855 158.599 60.4963C157.958 61.113 157.095 61.4213 156.009 61.4213ZM174.131 84.3983C171.862 84.3983 169.864 83.9543 168.137 83.0663C166.435 82.1783 165.115 80.9696 164.178 79.4403C163.241 77.8863 162.772 76.1226 162.772 74.1493C162.772 72.1513 163.228 70.3876 164.141 68.8583C165.078 67.3043 166.349 66.0956 167.952 65.2323C169.555 64.3443 171.368 63.9003 173.391 63.9003C175.34 63.9003 177.091 64.3196 178.645 65.1583C180.224 65.9723 181.469 67.1563 182.382 68.7103C183.295 70.2396 183.751 72.0773 183.751 74.2233C183.751 74.4453 183.739 74.7043 183.714 75.0003C183.689 75.2716 183.665 75.5306 183.64 75.7773H167.471V72.4103H180.606L178.386 73.4093C178.386 72.3733 178.176 71.473 177.757 70.7083C177.338 69.9436 176.758 69.3516 176.018 68.9323C175.278 68.4883 174.415 68.2663 173.428 68.2663C172.441 68.2663 171.566 68.4883 170.801 68.9323C170.061 69.3516 169.481 69.956 169.062 70.7453C168.643 71.51 168.433 72.4226 168.433 73.4833V74.3713C168.433 75.4566 168.667 76.4186 169.136 77.2573C169.629 78.0713 170.308 78.7003 171.171 79.1443C172.059 79.5636 173.095 79.7733 174.279 79.7733C175.34 79.7733 176.265 79.613 177.054 79.2923C177.868 78.9716 178.608 78.4906 179.274 77.8493L182.345 81.1793C181.432 82.2153 180.285 83.017 178.904 83.5843C177.523 84.127 175.932 84.3983 174.131 84.3983ZM191.784 84.1023L184.606 64.1963H190.045L196.002 81.3273H193.412L199.628 64.1963H204.512L210.543 81.3273H207.953L214.095 64.1963H219.201L211.986 84.1023H206.399L201.108 69.4133H202.81L197.334 84.1023H191.784Z" fill="#545DF8"/>
<path d="M224.067 84.3983C223.08 84.3983 222.229 84.0653 221.514 83.3993C220.823 82.7086 220.478 81.833 220.478 80.7723C220.478 79.7116 220.823 78.8606 221.514 78.2193C222.229 77.5533 223.08 77.2203 224.067 77.2203C225.078 77.2203 225.929 77.5533 226.62 78.2193C227.311 78.8606 227.656 79.7116 227.656 80.7723C227.656 81.833 227.311 82.7086 226.62 83.3993C225.929 84.0653 225.078 84.3983 224.067 84.3983Z" fill="#585D71"/>
<path d="M257.061 63.9003C258.639 63.9003 260.033 64.221 261.242 64.8623C262.475 65.479 263.437 66.441 264.128 67.7483C264.843 69.031 265.201 70.6836 265.201 72.7063V84.1023H259.429V73.5943C259.429 71.991 259.096 70.807 258.43 70.0423C257.764 69.2776 256.826 68.8953 255.618 68.8953C254.779 68.8953 254.027 69.0926 253.361 69.4873C252.695 69.8573 252.177 70.4246 251.807 71.1893C251.437 71.954 251.252 72.9283 251.252 74.1123V84.1023H245.48V73.5943C245.48 71.991 245.147 70.807 244.481 70.0423C243.839 69.2776 242.914 68.8953 241.706 68.8953C240.867 68.8953 240.115 69.0926 239.449 69.4873C238.783 69.8573 238.265 70.4246 237.895 71.1893C237.525 71.954 237.34 72.9283 237.34 74.1123V84.1023H231.568V64.1963H237.081V69.6353L236.045 68.0443C236.735 66.6876 237.71 65.664 238.968 64.9733C240.25 64.258 241.706 63.9003 243.334 63.9003C245.159 63.9003 246.75 64.369 248.107 65.3063C249.488 66.219 250.401 67.625 250.845 69.5243L248.81 68.9693C249.476 67.4153 250.536 66.182 251.992 65.2693C253.472 64.3566 255.161 63.9003 257.061 63.9003ZM280.398 84.3983C278.128 84.3983 276.13 83.9543 274.404 83.0663C272.702 82.1783 271.382 80.9696 270.445 79.4403C269.507 77.8863 269.039 76.1226 269.039 74.1493C269.039 72.1513 269.495 70.3876 270.408 68.8583C271.345 67.3043 272.615 66.0956 274.219 65.2323C275.822 64.3443 277.635 63.9003 279.658 63.9003C281.606 63.9003 283.358 64.3196 284.912 65.1583C286.49 65.9723 287.736 67.1563 288.649 68.7103C289.561 70.2396 290.018 72.0773 290.018 74.2233C290.018 74.4453 290.005 74.7043 289.981 75.0003C289.956 75.2716 289.931 75.5306 289.907 75.7773H273.738V72.4103H286.873L284.653 73.4093C284.653 72.3733 284.443 71.473 284.024 70.7083C283.604 69.9436 283.025 69.3516 282.285 68.9323C281.545 68.4883 280.681 68.2663 279.695 68.2663C278.708 68.2663 277.832 68.4883 277.068 68.9323C276.328 69.3516 275.748 69.956 275.329 70.7453C274.909 71.51 274.7 72.4226 274.7 73.4833V74.3713C274.7 75.4566 274.934 76.4186 275.403 77.2573C275.896 78.0713 276.574 78.7003 277.438 79.1443C278.326 79.5636 279.362 79.7733 280.546 79.7733C281.606 79.7733 282.531 79.613 283.321 79.2923C284.135 78.9716 284.875 78.4906 285.541 77.8493L288.612 81.1793C287.699 82.2153 286.552 83.017 285.171 83.5843C283.789 84.127 282.198 84.3983 280.398 84.3983Z" fill="#536471"/>
<path d="M56.12 81.0384C57.5602 79.3147 58.8569 77.4761 59.9974 75.5412C60.2434 75.1481 60.4897 74.7559 60.7378 74.3661C60.9642 73.8924 61.0411 73.3614 60.9577 72.8438C60.9462 72.5676 60.9345 72.2812 60.9497 71.9772C60.9529 71.9094 60.9401 71.842 60.9123 71.7808C60.8842 71.7192 60.8426 71.6653 60.7896 71.6234C60.7369 71.5813 60.6747 71.5526 60.6085 71.5391C60.5422 71.5257 60.4736 71.5287 60.4088 71.5472C60.017 71.6578 59.6631 71.7457 59.3382 71.8263C58.748 71.9526 58.1704 72.1317 57.6122 72.3614C54.1026 73.9408 51.194 76.4358 48.5769 78.8995C44.4276 82.8021 40.5081 85.2827 36.2422 86.7067C28.9246 89.1493 22.5005 86.4177 19.0598 79.4002C16.3247 73.8237 16.2642 68.4475 18.8802 63.4201C20.4163 60.4686 22.2319 57.589 23.9877 54.8044C24.5425 53.9238 25.0977 53.0436 25.6455 52.1595C26.1933 51.2755 26.8267 50.4259 27.4418 49.6016C27.7298 49.2153 28.0183 48.8284 28.2953 48.4411C28.337 48.3832 28.3634 48.3157 28.3723 48.2449C28.3811 48.1742 28.3719 48.1024 28.3458 48.0361C27.9652 47.0728 27.4928 46.4901 26.9008 46.2543C26.6746 46.1689 26.4327 46.1322 26.1912 46.1467C25.9496 46.1612 25.7138 46.2265 25.4991 46.3384C24.5739 46.7903 23.7262 47.3863 22.9878 48.104C19.7231 51.1601 17.3824 54.9636 15.1172 58.6401L14.6117 59.4591C9.78277 67.2695 9.67859 75.5727 14.3012 84.1377C17.5747 90.2034 22.8842 93.5664 30.0832 94.1335C34.2978 94.4657 38.2046 93.2646 41.4704 92.0452C46.3761 90.2135 50.2755 87.0792 53.3553 83.9995C54.3611 82.9895 55.2813 81.9873 56.12 81.0384Z" fill="#545DF8"/>
<path d="M80.5739 11.9022C73.8175 8.60812 67.7401 8.8005 61.9903 12.4905C57.3052 15.4683 52.8922 18.8555 48.804 22.6115C47.4789 23.9084 46.2643 25.3134 45.1728 26.8122C44.9072 27.1569 44.6416 27.501 44.3739 27.8413C43.5962 28.83 43.7615 29.9225 44.8165 30.7633C44.8758 30.8103 44.9467 30.8406 45.0217 30.8511C46.5179 31.0633 47.4371 30.0976 48.2485 29.2494C48.4122 29.0775 48.576 28.9056 48.7444 28.7442C53.9069 23.7779 59.7608 20.087 64.8062 17.1314C69.0035 14.6729 73.3377 14.7701 78.0564 17.4291C78.9754 17.9466 79.8553 18.5466 80.5177 19.0101C84.3039 21.6602 86.6278 25.0133 87.2374 28.7062C87.8407 32.3575 86.757 36.306 84.1862 39.8241L83.4991 40.7637C81.8255 43.0477 80.0953 45.4095 78.5541 47.8424C78.3706 48.1325 78.1842 48.422 77.9975 48.7124C76.4191 51.1696 74.7861 53.7096 73.9218 57.51C73.9044 57.5854 73.9084 57.664 73.9321 57.7375C73.9561 57.8108 73.9997 57.8761 74.0583 57.9265C74.1163 57.9769 74.1875 58.0106 74.2635 58.0237C74.3397 58.0371 74.418 58.0291 74.4898 58.0012C75.0708 57.7764 75.5626 57.6069 75.9957 57.4585C76.6672 57.2627 77.3127 56.9874 77.9193 56.6386C80.1955 55.1773 82.3066 53.4722 84.2145 51.5539C87.2355 48.4713 89.8482 45.0132 91.9883 41.2649C96.4838 33.5824 94.5505 22.5543 87.6781 16.6814C85.5203 14.7964 83.1335 13.1907 80.5739 11.9022Z" fill="#545DF8"/>
<path d="M35.3807 66.0657C35.2539 66.2001 35.1166 66.3297 34.9775 66.4594C34.5399 66.824 34.1762 67.2691 33.9061 67.7706C33.6918 68.324 33.5667 68.9079 33.5355 69.5003C33.5021 69.7985 33.4661 70.1215 33.4093 70.4737C33.399 70.5375 33.4033 70.6027 33.4219 70.6645C33.4405 70.7264 33.4729 70.7831 33.5167 70.8305C33.5605 70.8779 33.6145 70.9148 33.6746 70.9382C33.7348 70.9616 33.7994 70.9711 33.8638 70.9659C34.206 70.9383 34.5235 70.9336 34.8037 70.9299C35.3345 70.969 35.8674 70.8865 36.3619 70.6888C37.2666 70.1946 38.103 69.5843 38.8497 68.8734C43.006 65.1273 46.8344 61.5087 50.3903 57.9528C56.7262 51.6695 62.6493 44.9832 68.1225 37.9358C68.4126 37.5081 68.6393 37.0406 68.7953 36.5481C68.9307 36.1971 69.0994 35.7607 69.3332 35.2205C69.3681 35.1398 69.3773 35.0504 69.3595 34.9645C69.3417 34.8786 69.2975 34.8005 69.2335 34.7405C69.1695 34.6806 69.0885 34.6419 69.0017 34.6296C68.9146 34.6177 68.8262 34.6325 68.7479 34.6728C68.1965 34.957 67.7977 35.148 67.4982 35.291C67.1525 35.4294 66.827 35.615 66.5315 35.8418C65.2241 36.9774 63.8784 38.1182 62.5761 39.2219C59.4023 41.9112 56.1208 44.6922 53.1051 47.654C48.8178 51.8635 44.622 56.3065 40.5656 60.6002C38.8423 62.4254 37.1172 64.2513 35.3807 66.0657Z" fill="#545DF8"/>
</svg>
